<?xml version="1.0" standalone="no"?>
<!DOCTYPE svg PUBLIC "-//W3C//DTD SVG 20010904//EN"
 "http://www.w3.org/TR/2001/REC-SVG-20010904/DTD/svg10.dtd">
<svg version="1.0" xmlns="http://www.w3.org/2000/svg"
 width="266.000000pt" height="266.000000pt" viewBox="0 0 266.000000 266.000000"
 preserveAspectRatio="xMidYMid meet">
<metadata>
Created by potrace 1.11, written by Peter Selinger 2001-2013
</metadata>
<g transform="translate(0.000000,266.000000) scale(0.100000,-0.100000)"
fill="#000000" stroke="none">
<path d="M1506 2603 c-415 -60 -789 -375 -1031 -868 -116 -236 -172 -453 -182
-710 -12 -305 50 -519 197 -679 160 -175 280 -241 518 -283 65 -11 224 -5 317
12 50 10 100 18 112 19 12 2 28 7 35 13 7 6 24 14 38 18 14 4 68 29 120 56
292 147 384 294 296 470 -14 27 -30 76 -36 108 -18 101 -32 126 -94 181 -90
79 -126 99 -207 116 -103 22 -181 13 -277 -30 -72 -33 -77 -34 -80 -16 -6 33
37 171 78 252 38 77 84 149 126 200 l22 28 77 -76 c89 -88 153 -122 247 -131
196 -18 430 102 515 264 67 126 104 298 96 443 -9 176 -64 291 -198 418 -157
149 -280 200 -491 205 -62 1 -151 -3 -198 -10z"/>
<path d="M1040 2479 c0 -5 5 -7 10 -4 6 3 10 8 10 11 0 2 -4 4 -10 4 -5 0 -10
-5 -10 -11z"/>
<path d="M2245 2480 c-3 -5 -1 -10 4 -10 6 0 11 5 11 10 0 6 -2 10 -4 10 -3 0
-8 -4 -11 -10z"/>
</g>
</svg>
