<svg xmlns="http://www.w3.org/2000/svg" xmlns:xlink="http://www.w3.org/1999/xlink" viewBox="0 0 2132.11 412.86"><defs><style>.cls-1{fill:#f2f2f2;}.cls-2{fill:#2f2e41;}.cls-3{fill:#3f3d56;}.cls-4{opacity:0.1;}.cls-30,.cls-4,.cls-50,.cls-53,.cls-58,.cls-59,.cls-60{isolation:isolate;}.cls-5{fill:#fbbebe;}.cls-6{fill:#a0616a;}.cls-7{fill:#57b894;}.cls-8{fill:#ff5252;}.cls-9{fill:#464353;}.cls-10{fill:#ff6584;}.cls-11{fill:#ccc;}.cls-12{fill:url(#linear-gradient);}.cls-13{fill:url(#linear-gradient-2);}.cls-14{fill:#ff9800;}.cls-15{fill:url(#linear-gradient-3);}.cls-16{fill:#00897b;}.cls-17{fill:url(#linear-gradient-4);}.cls-18{fill:#795548;}.cls-19{fill:url(#linear-gradient-5);}.cls-20{fill:#009688;}.cls-21,.cls-38{fill:none;}.cls-22{fill:url(#linear-gradient-6);}.cls-23{fill:url(#linear-gradient-7);}.cls-24{fill:#fff;}.cls-25{fill:url(#linear-gradient-8);}.cls-26{fill:url(#linear-gradient-9);}.cls-27{fill:url(#linear-gradient-10);}.cls-28{fill:url(#linear-gradient-11);}.cls-29{fill:url(#linear-gradient-12);}.cls-30{opacity:0.2;}.cls-31{fill:url(#linear-gradient-13);}.cls-32{fill:#263238;}.cls-33{fill:url(#linear-gradient-14);}.cls-34{fill:url(#linear-gradient-15);}.cls-35{fill:url(#linear-gradient-16);}.cls-36{fill:url(#linear-gradient-17);}.cls-37{fill:url(#linear-gradient-18);}.cls-38{stroke:#37474f;stroke-miterlimit:10;}.cls-39{fill:url(#linear-gradient-19);}.cls-40{fill:#f5f5f5;}.cls-41{fill:url(#linear-gradient-20);}.cls-42{fill:url(#linear-gradient-21);}.cls-43{fill:url(#linear-gradient-22);}.cls-44{fill:#e6e6e6;}.cls-45{fill:url(#linear-gradient-23);}.cls-46{fill:url(#linear-gradient-24);}.cls-47{fill:url(#linear-gradient-25);}.cls-48{fill:url(#linear-gradient-26);}.cls-49{fill:url(#linear-gradient-27);}.cls-50{fill:#4d8af0;}.cls-50,.cls-56,.cls-58,.cls-59{opacity:0.5;}.cls-51{fill:#e0e0e0;}.cls-52,.cls-58{fill:#f55f44;}.cls-53{opacity:0.05;}.cls-54{fill:url(#linear-gradient-28);}.cls-55{fill:#dbdbdb;}.cls-57,.cls-59{fill:#47e6b1;}.cls-60{opacity:0.15;}</style><linearGradient id="linear-gradient" x1="1914.79" y1="239.19" x2="1942.31" y2="239.19" gradientTransform="translate(3716.19 408.24) rotate(180)" gradientUnits="userSpaceOnUse"><stop offset="0" stop-color="gray" stop-opacity="0.25"/><stop offset="0.54" stop-color="gray" stop-opacity="0.12"/><stop offset="1" stop-color="gray" stop-opacity="0.1"/></linearGradient><linearGradient id="linear-gradient-2" x1="1964.7" y1="298.68" x2="1964.7" y2="349.99" xlink:href="#linear-gradient"/><linearGradient id="linear-gradient-3" x1="1830" y1="56.89" x2="1830" y2="244.08" gradientTransform="translate(3806.18 942) rotate(180)" xlink:href="#linear-gradient"/><linearGradient id="linear-gradient-4" x1="1679.88" y1="41.86" x2="1679.88" y2="249.67" xlink:href="#linear-gradient"/><linearGradient id="linear-gradient-5" x1="1913.73" y1="48.59" x2="1913.73" y2="205.17" gradientTransform="translate(3806.18 942) rotate(180)" xlink:href="#linear-gradient"/><linearGradient id="linear-gradient-6" x1="1750.42" y1="42.91" x2="1750.42" y2="217.33" xlink:href="#linear-gradient"/><linearGradient id="linear-gradient-7" x1="2003.28" y1="-50.62" x2="2003.28" y2="126.73" gradientTransform="translate(3806.18 942) rotate(180)" xlink:href="#linear-gradient"/><linearGradient id="linear-gradient-8" x1="1845.77" y1="176.04" x2="1845.77" y2="230.47" xlink:href="#linear-gradient"/><linearGradient id="linear-gradient-9" x1="1770.7" y1="102.67" x2="1770.7" y2="150.78" xlink:href="#linear-gradient"/><linearGradient id="linear-gradient-10" x1="1919.88" y1="102.67" x2="1919.88" y2="150.78" xlink:href="#linear-gradient"/><linearGradient id="linear-gradient-11" x1="1845.3" y1="149.09" x2="1845.3" y2="302.99" xlink:href="#linear-gradient"/><linearGradient id="linear-gradient-12" x1="1845.53" y1="15.94" x2="1845.53" y2="96.36" xlink:href="#linear-gradient"/><linearGradient id="linear-gradient-13" x1="1860.35" y1="49.71" x2="1860.35" y2="61.37" xlink:href="#linear-gradient"/><linearGradient id="linear-gradient-14" x1="1844.56" y1="4.03" x2="1844.56" y2="27.35" xlink:href="#linear-gradient"/><linearGradient id="linear-gradient-15" x1="1865.68" y1="-20.65" x2="1865.68" y2="65.66" gradientTransform="translate(3806.18 942) rotate(180)" xlink:href="#linear-gradient"/><linearGradient id="linear-gradient-16" x1="1711.86" y1="4.78" x2="1711.86" y2="100.57" xlink:href="#linear-gradient"/><linearGradient id="linear-gradient-17" x1="1904.31" y1="-24.47" x2="1904.31" y2="47.73" gradientTransform="translate(3806.18 942) rotate(180)" xlink:href="#linear-gradient"/><linearGradient id="linear-gradient-18" x1="1744.37" y1="5.27" x2="1744.37" y2="85.67" xlink:href="#linear-gradient"/><linearGradient id="linear-gradient-19" x1="1605.17" y1="0.99" x2="1605.17" y2="131.6" xlink:href="#linear-gradient"/><linearGradient id="linear-gradient-20" x1="1652.65" y1="103.4" x2="1652.65" y2="126.2" xlink:href="#linear-gradient"/><linearGradient id="linear-gradient-21" x1="1605.38" y1="111.28" x2="1605.38" y2="118.74" xlink:href="#linear-gradient"/><linearGradient id="linear-gradient-22" x1="1705.3" y1="111.28" x2="1705.3" y2="118.74" xlink:href="#linear-gradient"/><linearGradient id="linear-gradient-23" x1="1619.48" y1="57.17" x2="1699.5" y2="57.17" xlink:href="#linear-gradient"/><linearGradient id="linear-gradient-24" x1="-654.45" y1="-31.81" x2="-654.45" y2="46.64" gradientTransform="matrix(1, 0, 0, -1, 2346.1, 942)" xlink:href="#linear-gradient"/><linearGradient id="linear-gradient-25" x1="-651.56" y1="-63.25" x2="-651.56" y2="23.84" gradientTransform="matrix(1, 0, 0, -1, 2413.11, 348.24)" xlink:href="#linear-gradient"/><linearGradient id="linear-gradient-26" x1="-619.36" y1="-35.29" x2="-619.36" y2="30.37" gradientTransform="matrix(1, 0, 0, -1, 2346.1, 942)" xlink:href="#linear-gradient"/><linearGradient id="linear-gradient-27" x1="-622.01" y1="-62.82" x2="-622.01" y2="10.28" gradientTransform="matrix(1, 0, 0, -1, 2413.11, 348.24)" xlink:href="#linear-gradient"/><linearGradient id="linear-gradient-28" x1="372.15" y1="-1849.44" x2="372.15" y2="-1807.53" gradientTransform="matrix(0, 1, 1, 0, 2786.68, 446.75)" gradientUnits="userSpaceOnUse"><stop offset="0" stop-color="gray" stop-opacity="0.25"/><stop offset="0.54" stop-color="gray" stop-opacity="0.12"/><stop offset="1" stop-color="gray" stop-opacity="0.1"/></linearGradient></defs><g id="Layer_1" data-name="Layer 1"><rect x="231.09" y="240.86" width="31.67" height="20.26"/><rect x="181.73" y="272.53" width="31.67" height="20.26"/><path class="cls-1" d="M288.34,841.24V798.15H264.4v-28H248.2v28H224.26v43.09H211V744.38H184.11v-9.21H148.39V726H113v9.21H79.51v9.21H50.42v96.49H35V797.78H11v-28H-5.2v28H-29.14v43.09H-44.61V993.72H-9.25V939.58H15.06v54.14h95v-63h41.25v63h57.46v.37h35.36V940h24.31v54.14h35.35V841.24ZM-31.9,859.66h14v11.05h-14Zm.18,30.94h14v11h-14Zm14.18,42h-14V921.53h14Zm36.65-99.81H-13.3v-6.63H19.11Zm0-9.57H-13.3v-6.63H19.11Zm0-9.58H-13.3V807H19.11Zm4.6,46h14v11.05h-14Zm.19,30.94h14v11h-14Zm14.18,42h-14V921.53h14Zm57.27-18.41H69.57V902.75H95.35Zm0-32.78H69.57V870H95.35Zm0-32.78H69.57V837.19H95.35Zm0-32.78H69.57V804.41H95.35Zm0-32.78H69.57V771.63H95.35ZM143.6,914.17H117.82V902.75H143.6Zm0-32.78H117.82V870H143.6Zm0-32.78H117.82V837.19H143.6Zm0-32.78H117.82V804.41H143.6Zm0-32.78H117.82V771.63H143.6Zm48.25,131.12H166.07V902.75h25.78Zm0-32.78H166.07V870h25.78Zm0-32.78H166.07V837.19h25.78Zm0-32.78H166.07V804.41h25.78Zm0-32.78H166.07V771.63h25.78Zm29.65,77h14v11.05h-14Zm.18,30.93h14v11h-14Zm14.18,42h-14V921.9h14Zm36.65-99.81H240.1v-6.63h32.41Zm0-9.58H240.1v-6.63h32.41Zm0-9.57H240.1v-6.63h32.41Zm4.6,46h14v11.05h-14ZM277.3,891h14v11h-14Zm14.18,42h-14V921.9h14Z" transform="translate(67.01 -593.76)"/><path d="M-22.81,956.42c-.1,1.45-.26,3.08-.51,4.8l4.5-5,0,.09a13.17,13.17,0,0,0-1.32-3.44l0,.08Z" transform="translate(67.01 -593.76)"/><path d="M-22.79,956.16l2.64-3.36a7,7,0,0,0-2.36-2.52l-.15-.08A58.06,58.06,0,0,1-22.79,956.16Z" transform="translate(67.01 -593.76)"/><path d="M-25.17,969.34l-.36,1,6.63-3.89v.1c.14-.61.25-1.21.34-1.82l-6.62,4.61Z" transform="translate(67.01 -593.76)"/><path d="M-24.25,966.07l6-4.92,0,.09a20.68,20.68,0,0,0-.51-4.84l-4.59,5.09C-23.6,963.09-23.9,964.62-24.25,966.07Z" transform="translate(67.01 -593.76)"/><path d="M-23.46,961.39l-7.15-8,0-.09a17.68,17.68,0,0,0-1.72,3l8.16,8.69C-23.85,963.76-23.63,962.53-23.46,961.39Z" transform="translate(67.01 -593.76)"/><path d="M-32.36,956.52h0l0-.09Z" transform="translate(67.01 -593.76)"/><path d="M-32.76,957.5l0,.09,0-.09Z" transform="translate(67.01 -593.76)"/><path d="M-24.18,965.24l-8.18-8.72c-.14.32-.28.65-.4,1l8.36,8.66C-24.32,965.85-24.25,965.54-24.18,965.24Z" transform="translate(67.01 -593.76)"/><path d="M-18.53,964.66a26.37,26.37,0,0,0,.27-3.31l-6.06,5c-.24,1-.5,1.9-.79,2.79l6.57-4.57Z" transform="translate(67.01 -593.76)"/><path d="M-33.85,965.28l6.63,8.64a31.45,31.45,0,0,0,1.44-3.25l-8.09-8.49a22.65,22.65,0,0,0,0,3.19Z" transform="translate(67.01 -593.76)"/><path d="M-22.78,950.19l.06,0a4.68,4.68,0,0,0-4.53.09l4.34,5.9A58.58,58.58,0,0,0-22.78,950.19Z" transform="translate(67.01 -593.76)"/><path d="M-25.75,971a28.37,28.37,0,0,1-1.3,2.93l6.67-3.45v.1a11.74,11.74,0,0,0,1.17-2.7c.11-.38.2-.75.29-1.13l-6.71,3.94Z" transform="translate(67.01 -593.76)"/><path d="M-22.93,956.42l-4.43-6,0-.09a10,10,0,0,0-3.2,3l7.09,7.91C-23.19,959.47-23,957.86-22.93,956.42Z" transform="translate(67.01 -593.76)"/><path d="M-25.71,970.48a39.74,39.74,0,0,0,1.26-4.11l-8.38-8.68c-.2.54-.39,1.1-.55,1.69a14.06,14.06,0,0,0-.47,2.56l8.13,8.54Z" transform="translate(67.01 -593.76)"/><path d="M-17.1,979.84c-1,1.06-2.17,2.21-3.45,3.37l6.65-1,0,.08a13,13,0,0,0,1.17-3.49l0,.08Z" transform="translate(67.01 -593.76)"/><path d="M-13,975.31l-.06-.16a58.32,58.32,0,0,1-3.9,4.51l4.18-.91A6.93,6.93,0,0,0-13,975.31Z" transform="translate(67.01 -593.76)"/><path d="M-27.16,988.29l-.94.57,7.59,1.23,0,.08c.49-.37,1-.77,1.42-1.17l-8-.68Z" transform="translate(67.01 -593.76)"/><path d="M-24.36,986.36l7.74,0-.05.08A20.48,20.48,0,0,0-14,982.4l-6.78,1C-22,984.48-23.17,985.46-24.36,986.36Z" transform="translate(67.01 -593.76)"/><path d="M-27,988.17l8,.67-.05.08a26,26,0,0,0,2.31-2.38l-7.84,0C-25.39,987.12-26.18,987.66-27,988.17Z" transform="translate(67.01 -593.76)"/><path d="M-36.74,992.11l.18-.18a20.11,20.11,0,0,0,4.73-1.35l.21-5.74c.07-.15.13-.3.19-.44l-.23,6.11a29.39,29.39,0,0,0,3.18-1.58l-.74-10.68.17-.09.74,10.66h0a40.51,40.51,0,0,0,3.6-2.36L-25.51,976l.17-.13.81,10.51.75-.57-.66-10.64.17-.14.66,10.65c1-.8,2-1.6,2.84-2.38l-.42-10.7.09,0-.91.27a14.33,14.33,0,0,0,1.54-2.1l-6.73,3.48a23,23,0,0,1-1.56,2.56l-.36.34v.13l-.17.21v-.17l-.25.27a21.27,21.27,0,0,0,2.23-3.41l-6.58-8.58c0,.76.12,1.54.22,2.3a12.94,12.94,0,0,0-2.2-2.69l0,.06-1.52,4.15c.35,1.41.7,3,1,4.72l2.7-6.06c0,.1,0,.19,0,.28l-2.69,6.05c.26,1.6.45,3.14.57,4.63l3.23-5.08.06.22-3.27,5.14c.07,1,.11,2,.11,2.9l4-5.22c0,.07,0,.13.07.2l-4,5.27,0,0c0,.37,0,.74,0,1.1l4.46-5a2,2,0,0,0,.07.19l-4.54,5.11c0,.11,0,.23,0,.34a30.6,30.6,0,0,1-.34,3.18l.43-.43-.24.5-.24.25-.09.47-.26.59c.08-.37.15-.73.22-1.1l-8.91-6.13a54.7,54.7,0,0,0,7,12,14.3,14.3,0,0,0,.62-1.31h.17l-.07.16h-.08l.07,0c-.14.31-.27.62-.42.92.19-.18.49-.46.84-.81,2.1.54,7.74,1.68,12.57,0l-7.4-1.61A20.86,20.86,0,0,1-36.74,992.11Zm5.2-9.36.18-.18v.27l-.18.18Z" transform="translate(67.01 -593.76)"/><path d="M-13.1,975.07l.06,0a4.7,4.7,0,0,0-3.55-2.82l-.42,7.31C-14.59,977-13.13,975.1-13.1,975.07Z" transform="translate(67.01 -593.76)"/><path d="M-28.63,989.17a30.59,30.59,0,0,1-2.87,1.42l7.33,1.59,0,.08a11.75,11.75,0,0,0,2.62-1.33c.32-.22.63-.45.94-.68L-28.34,989Z" transform="translate(67.01 -593.76)"/><path d="M-20.6,983.1c1.27-1.15,2.42-2.29,3.41-3.33l.43-7.48.09,0a10,10,0,0,0-4.35.24Z" transform="translate(67.01 -593.76)"/><path d="M-35.93,965.06a6.89,6.89,0,0,0-3-1.66l-.16,0c.14.37.92,2.57,1.71,5.71Z" transform="translate(67.01 -593.76)"/><path d="M-36.43,974.26l-9.26-5.38v-.1a17.26,17.26,0,0,0-.7,3.4l10.44,5.74C-36.07,976.63-36.24,975.4-36.43,974.26Z" transform="translate(67.01 -593.76)"/><path d="M-46.4,972.38h0s0-.07,0-.1Z" transform="translate(67.01 -593.76)"/><path d="M-46.47,973.43v.1a.38.38,0,0,1,0-.1Z" transform="translate(67.01 -593.76)"/><path d="M-35.92,978.14l-10.48-5.76c0,.34-.06.69-.07,1l10.63,5.65C-35.87,978.76-35.89,978.45-35.92,978.14Z" transform="translate(67.01 -593.76)"/><path d="M-35.76,983.8l-10.32-5.57a24.93,24.93,0,0,0,1,3l0-.11,9,6.18A32.17,32.17,0,0,0-35.76,983.8Z" transform="translate(67.01 -593.76)"/><path d="M-39.24,963.4l.05,0a4.71,4.71,0,0,0-4.28,1.49l5.95,4.27C-38.38,965.71-39.23,963.43-39.24,963.4Z" transform="translate(67.01 -593.76)"/><path d="M-37.45,969.36-43.54,965v-.1a10,10,0,0,0-2.12,3.8l9.18,5.33C-36.76,972.34-37.11,970.76-37.45,969.36Z" transform="translate(67.01 -593.76)"/><path d="M-35.76,983.6a38.71,38.71,0,0,0-.07-4.31l-10.66-5.66c0,.58,0,1.17,0,1.78a14.06,14.06,0,0,0,.36,2.58l10.37,5.61Z" transform="translate(67.01 -593.76)"/><path d="M292.47,955.31c-.11,1.46-.27,3.09-.52,4.8l4.5-5,0,.08a13.31,13.31,0,0,0-1.32-3.44l0,.08Z" transform="translate(67.01 -593.76)"/><path d="M292.48,955.06l2.64-3.36a6.88,6.88,0,0,0-2.36-2.52l-.14-.08C292.63,949.49,292.7,951.82,292.48,955.06Z" transform="translate(67.01 -593.76)"/><path d="M290.1,968.23c-.11.35-.23.7-.36,1l6.63-3.89v.1c.14-.6.26-1.21.35-1.81l-6.62,4.6Z" transform="translate(67.01 -593.76)"/><path d="M291,965l6-4.93v.09a20.73,20.73,0,0,0-.51-4.84l-4.59,5.09C291.67,962,291.37,963.51,291,965Z" transform="translate(67.01 -593.76)"/><path d="M291.81,960.28l-7.15-8,0-.09a17.63,17.63,0,0,0-1.71,3l8.15,8.68C291.42,962.65,291.64,961.43,291.81,960.28Z" transform="translate(67.01 -593.76)"/><path d="M282.91,955.42h0a.36.36,0,0,1,0-.09Z" transform="translate(67.01 -593.76)"/><path d="M291.09,964.13l-8.18-8.71c-.14.31-.27.64-.4,1l8.37,8.65C291,964.74,291,964.44,291.09,964.13Z" transform="translate(67.01 -593.76)"/><path d="M282.51,956.4l0,.09,0-.09Z" transform="translate(67.01 -593.76)"/><path d="M296.75,963.55a24.47,24.47,0,0,0,.26-3.31l-6.05,5c-.24,1-.51,1.9-.79,2.79l6.56-4.56Z" transform="translate(67.01 -593.76)"/><path d="M281.43,964.17l6.62,8.65a28.44,28.44,0,0,0,1.44-3.25l-8.08-8.49a24.26,24.26,0,0,0,0,3.19Z" transform="translate(67.01 -593.76)"/><path d="M292.5,949.09l.05,0a4.66,4.66,0,0,0-4.52.1l4.34,5.89C292.6,951.55,292.5,949.12,292.5,949.09Z" transform="translate(67.01 -593.76)"/><path d="M289.53,969.85a31.84,31.84,0,0,1-1.3,2.93l6.66-3.45v.09a11.8,11.8,0,0,0,1.17-2.7c.1-.37.2-.75.28-1.12l-6.71,3.93A3,3,0,0,1,289.53,969.85Z" transform="translate(67.01 -593.76)"/><path d="M292.35,955.31l-4.44-6,0-.08a9.92,9.92,0,0,0-3.2,2.95l7.09,7.91C292.09,958.36,292.25,956.75,292.35,955.31Z" transform="translate(67.01 -593.76)"/><path d="M289.56,969.37a39.05,39.05,0,0,0,1.27-4.11l-8.39-8.68c-.2.54-.38,1.11-.55,1.69a14,14,0,0,0-.46,2.57l8.13,8.54Z" transform="translate(67.01 -593.76)"/><path d="M298.18,978.74c-1,1.06-2.17,2.21-3.46,3.37l6.66-1,0,.08a13,13,0,0,0,1.18-3.48l0,.08Z" transform="translate(67.01 -593.76)"/><path d="M302.32,974.2l-.06-.15c-.24.31-1.68,2.15-3.91,4.5l4.18-.9A7,7,0,0,0,302.32,974.2Z" transform="translate(67.01 -593.76)"/><path d="M288.12,987.18l-.94.57,7.58,1.24-.05.08c.49-.38,1-.77,1.42-1.18l-8-.67Z" transform="translate(67.01 -593.76)"/><path d="M290.91,985.26h7.74l0,.08a21.11,21.11,0,0,0,2.69-4.05l-6.78,1Q292.71,983.91,290.91,985.26Z" transform="translate(67.01 -593.76)"/><path d="M288.3,987.06l8,.67,0,.08a23.7,23.7,0,0,0,2.32-2.38h-7.85C289.89,986,289.09,986.56,288.3,987.06Z" transform="translate(67.01 -593.76)"/><path d="M278.54,991l.17-.18a20.46,20.46,0,0,0,4.73-1.35l.22-5.75c.06-.14.13-.29.19-.44l-.23,6.11a28.36,28.36,0,0,0,3.17-1.58l-.74-10.68.18-.09.74,10.67h0a39.11,39.11,0,0,0,3.6-2.36l-.81-10.52.18-.12.8,10.51.76-.57L290.83,974l.17-.14.67,10.64c1-.79,2-1.6,2.83-2.37l-.42-10.7.09-.05-.9.27a15,15,0,0,0,1.54-2.09l-6.73,3.48a23.91,23.91,0,0,1-1.57,2.55l-.36.35v.12c-.05.08-.11.15-.16.22l0-.17-.25.27A21.36,21.36,0,0,0,288,973l-6.57-8.58c0,.77.12,1.54.21,2.31a13,13,0,0,0-2.2-2.7l.05.07-1.52,4.14c.35,1.42.7,3,1,4.72l2.7-6.05a2.7,2.7,0,0,0,0,.28l-2.7,6c.27,1.6.46,3.15.57,4.64l3.24-5.08c0,.07,0,.14.05.22l-3.27,5.13c.08,1,.11,2,.11,2.9l4-5.22.06.21-4,5.27v0c0,.37,0,.74,0,1.1l4.45-5c0,.07.05.13.07.19l-4.54,5.11c0,.11,0,.22,0,.33a28.5,28.5,0,0,1-.33,3.19l.43-.44-.24.5-.25.25c0,.16-.06.32-.09.48s-.17.39-.26.58c.08-.36.16-.73.22-1.09l-8.9-6.13a55,55,0,0,0,7,12c.22-.43.43-.86.62-1.31l.16,0a1.22,1.22,0,0,1-.07.17h-.08l.07,0c-.13.31-.27.61-.42.91.2-.17.49-.45.85-.8,2.09.53,7.73,1.68,12.56,0l-7.4-1.61A20.65,20.65,0,0,1,278.54,991Zm5.2-9.37.17-.18v.27l-.17.18Z" transform="translate(67.01 -593.76)"/><path d="M302.17,974h.06a4.65,4.65,0,0,0-3.54-2.81l-.42,7.3C300.68,975.93,302.15,974,302.17,974Z" transform="translate(67.01 -593.76)"/><path d="M286.64,988.06a27.32,27.32,0,0,1-2.87,1.42l7.34,1.6-.06.08a11.18,11.18,0,0,0,2.62-1.34c.32-.22.64-.44.94-.68l-7.68-1.25Z" transform="translate(67.01 -593.76)"/><path d="M294.67,982c1.27-1.14,2.42-2.28,3.42-3.33l.43-7.47.08,0a10.1,10.1,0,0,0-4.34.23Z" transform="translate(67.01 -593.76)"/><path d="M279.34,964a6.91,6.91,0,0,0-3-1.66l-.17,0c.14.38.93,2.57,1.72,5.71Z" transform="translate(67.01 -593.76)"/><path d="M278.84,973.15l-9.26-5.37v-.1a17.26,17.26,0,0,0-.7,3.4l10.44,5.74C279.21,975.52,279,974.29,278.84,973.15Z" transform="translate(67.01 -593.76)"/><path d="M268.8,972.33v.1s0-.07,0-.1Z" transform="translate(67.01 -593.76)"/><path d="M268.88,971.27h0v0Z" transform="translate(67.01 -593.76)"/><path d="M279.35,977l-10.47-5.76c0,.35-.06.7-.08,1.06L279.43,978C279.41,977.66,279.38,977.34,279.35,977Z" transform="translate(67.01 -593.76)"/><path d="M279.51,982.7l-10.31-5.58a22.83,22.83,0,0,0,1,3v-.1l9,6.17A28,28,0,0,0,279.51,982.7Z" transform="translate(67.01 -593.76)"/><path d="M276,962.29l0,0a4.67,4.67,0,0,0-4.27,1.49l5.95,4.26C276.9,964.6,276.05,962.33,276,962.29Z" transform="translate(67.01 -593.76)"/><path d="M277.82,968.26l-6.09-4.37,0-.09a10,10,0,0,0-2.13,3.79l9.19,5.33C278.51,971.24,278.17,969.66,277.82,968.26Z" transform="translate(67.01 -593.76)"/><path d="M279.52,982.49a41.13,41.13,0,0,0-.07-4.3l-10.66-5.66c0,.57,0,1.17,0,1.77a15.07,15.07,0,0,0,.35,2.59l10.37,5.61Z" transform="translate(67.01 -593.76)"/><path class="cls-2" d="M-44.61,993.72H303.81v5a7.9,7.9,0,0,1-7.9,7.9H-36.7a7.9,7.9,0,0,1-7.91-7.9h0v-5Z" transform="translate(67.01 -593.76)"/><rect class="cls-3" x="22.4" y="395.91" width="348.42" height="7"/><path class="cls-1" d="M225.42,750.26l4,2.54L227,748.38a4,4,0,0,1,2.42-.86h.06a5.69,5.69,0,0,0,.83-.06l1.36.86-.58-1.06a4.88,4.88,0,0,0,2.37-1.8l2.43,1.54-1.54-2.79a7.13,7.13,0,0,1,5.44-2.75A7.46,7.46,0,0,1,246,745.3a4.64,4.64,0,0,0,4.11,2.22h.14c2.78,0,5,3.16,5,7.05s-2.26,7.06-5,7.06a3.7,3.7,0,0,1-1.76-.44,7.29,7.29,0,0,0-6.11-.12,6.34,6.34,0,0,1-5.19,0,7.26,7.26,0,0,0-6,.12,3.79,3.79,0,0,1-1.74.43c-2.79,0-5-3.16-5-7.06A9,9,0,0,1,225.42,750.26Z" transform="translate(67.01 -593.76)"/><path class="cls-1" d="M21.83,771l2.54,1.61-1.54-2.81a2.54,2.54,0,0,1,1.54-.55h0a3.15,3.15,0,0,0,.53,0l.86.55-.37-.67a3.14,3.14,0,0,0,1.51-1.15l1.54,1-1-1.77A4.48,4.48,0,0,1,31,765.39a4.75,4.75,0,0,1,4,2.44,2.92,2.92,0,0,0,2.61,1.41h.09c1.77,0,3.21,2,3.21,4.49s-1.44,4.49-3.21,4.49a2.44,2.44,0,0,1-1.12-.28,4.62,4.62,0,0,0-3.88-.08,4,4,0,0,1-3.3,0,4.65,4.65,0,0,0-3.86.07,2.36,2.36,0,0,1-1.1.28c-1.77,0-3.21-2-3.21-4.49A5.67,5.67,0,0,1,21.83,771Z" transform="translate(67.01 -593.76)"/><path class="cls-1" d="M-46.68,779.64l2.55,1.61-1.55-2.81a2.54,2.54,0,0,1,1.54-.55h0a2.32,2.32,0,0,0,.53,0l.86.55-.37-.67a3,3,0,0,0,1.51-1.15l1.55,1-1-1.77A4.51,4.51,0,0,1-37.54,774a4.75,4.75,0,0,1,4,2.44A3,3,0,0,0-31,777.89h.08c1.78,0,3.21,2,3.21,4.49s-1.43,4.49-3.21,4.49a2.37,2.37,0,0,1-1.11-.28,4.64,4.64,0,0,0-3.89-.07,4,4,0,0,1-3.3,0,4.66,4.66,0,0,0-3.85.08,2.36,2.36,0,0,1-1.11.27c-1.77,0-3.21-2-3.21-4.49A5.7,5.7,0,0,1-46.68,779.64Z" transform="translate(67.01 -593.76)"/><path d="M45.23,945.79l-.45.45s.15,4.89.3,5.93.74,2.81.29,4.15a5,5,0,0,0-.44,2.51c.15.15-.15.75-.15.75l1.19-.75,1.92-4.44L47,949.65Z" transform="translate(67.01 -593.76)"/><path class="cls-4" d="M45.23,945.79l-.45.45s.15,4.89.3,5.93.74,2.81.29,4.15a5,5,0,0,0-.44,2.51c.15.15-.15.75-.15.75l1.19-.75,1.92-4.44L47,949.65Z" transform="translate(67.01 -593.76)"/><path d="M53.08,991.88s0-1.63-.3-1.92-.74-1.34-1.33-1.34a8.35,8.35,0,0,0-2.67.74,2.68,2.68,0,0,1-.29,1.34c-.3.44-1.93,2.22-.3,2.52a4.15,4.15,0,0,0,3.11-.74c.15-.15.74-.3.89-.15S53.08,991.88,53.08,991.88Z" transform="translate(67.01 -593.76)"/><path d="M57.23,989.21l.89,1.64s.3,1.48.74,1.63h.44s.45,1.63,1.49,1.48,2.22-.74,2.22-1,0-1.19-.45-1.48a22.78,22.78,0,0,1-1.77-1.63l-.74-.74Z" transform="translate(67.01 -593.76)"/><path class="cls-2" d="M45.86,934.93a2,2,0,0,0-1.07,1.5c-.09,1.05,1,2.05.62,3.06-.19.57-.78.94-.95,1.52a2,2,0,0,0,.19,1.35A9.89,9.89,0,0,0,45.5,944a8.26,8.26,0,0,1,1.6,3.06,1.27,1.27,0,0,1-.29,1.15,2.9,2.9,0,0,1,1-.48A12.69,12.69,0,0,0,52,945.43a2.5,2.5,0,0,0,1-1.28c.23-.91-.46-1.82-.39-2.75a6.7,6.7,0,0,1,.58-1.7,4.37,4.37,0,0,0-.38-3.41,4.11,4.11,0,0,0-2.42-2.11,4.85,4.85,0,0,0-2.45.08A8.79,8.79,0,0,0,45.86,934.93Z" transform="translate(67.01 -593.76)"/><path d="M46.69,943.15a3.86,3.86,0,0,1,3.35-2c2.37,0,1.93-.14,1.93-.14l-.74,3-1.48,1.48Z" transform="translate(67.01 -593.76)"/><path class="cls-5" d="M47.3,940s1.33,2.23.45,3.12a1.43,1.43,0,0,0-.3,1.92c.15.15,4.3.45,4.3.45l.14-2.08.45-1.78s-2.37-.44-2.08-1.48S47.3,940,47.3,940Z" transform="translate(67.01 -593.76)"/><path class="cls-4" d="M47.3,940s1.33,2.23.45,3.12a1.43,1.43,0,0,0-.3,1.92c.15.15,4.3.45,4.3.45l.14-2.08.45-1.78s-2.37-.44-2.08-1.48S47.3,940,47.3,940Z" transform="translate(67.01 -593.76)"/><path class="cls-5" d="M57.67,961.06a9,9,0,0,1-.59,1.48c-.15.15-.59-1-.59-1l.44-1Z" transform="translate(67.01 -593.76)"/><polygon class="cls-5" points="122.98 360.56 123.57 363.96 114.68 363.96 115.13 360.56 122.98 360.56"/><circle class="cls-5" cx="115.94" cy="344.63" r="2.82"/><path d="M49.52,944.16s-1.63.15-1.63-.15-.14-1.18-.44-1-2.22.29-2.08.74.45,1.33.15,1.33a1,1,0,0,0-.75,1.14s0,0,0,0c.15.74,1.78,5.18,1.78,5.18a4.51,4.51,0,0,0,.59,1.93,1.34,1.34,0,0,1,0,1.63c-.29.3.74.59,1.19,1.19s3.85.15,4,0,3.7-.15,4-.45-.15-1.18-.15-1.18a6.83,6.83,0,0,1,0-1.78c.15-.45-.59-7.71-1-8.15s1.33-1.78,1.33-1.78-.3-1.19-2.22-1.33c0,0-.6-.89-1.19-.89a6.33,6.33,0,0,0-1.88.69s-.34,2-.79,2.12A2.54,2.54,0,0,0,49.52,944.16Z" transform="translate(67.01 -593.76)"/><path d="M55.45,942.38l1,.45s3,9.19,2.67,11-1,7.85-1.49,7.85-1.33-.89-1.33-.89v-1.48c0-.3-.44-1.19-.15-1.19s.74-.29.45-.59-.6-.74-.3-1.18.45-.6.3-1-.45-.89-.15-1.19-.74-1.78-.74-1.78l-1.63-6.52.29-2.66Z" transform="translate(67.01 -593.76)"/><path class="cls-2" d="M56,956.46s-5.63-.44-6.37-.44a9.64,9.64,0,0,1-2.4-.7,12.65,12.65,0,0,0-2.79,11.22c1.49,7,1.78,15.56,2.67,18.08a45.73,45.73,0,0,1,1.48,5.48s1.49-2.66,4.3.3a7.65,7.65,0,0,0-.15-3.11,39.47,39.47,0,0,1-1-5.63s-1-7.56-1-8.45-.59-8.45-.45-8.6.89,5.78,1,6.82.59,9,1,9.93,2.52,8,3.7,8.45,5.19-.15,5-.45S59.9,987.44,59.6,987l-1.18-1.78-2.82-9.63,1.33-11.71S57.67,956.32,56,956.46Z" transform="translate(67.01 -593.76)"/><path class="cls-2" d="M50.65,938H47a.65.65,0,0,1-.64-.54L46,935.2h5.63l-.5,2.39A.53.53,0,0,1,50.65,938Z" transform="translate(67.01 -593.76)"/><path class="cls-2" d="M236.75,937.31h5.69v8.14h0a5.7,5.7,0,0,1-5.69-5.7h0v-2.44Z" transform="translate(67.01 -593.76)"/><polygon class="cls-6" points="300.43 391.23 300.03 393.27 302.88 393.27 303.01 391.23 300.43 391.23"/><path d="M233.42,986.62s-.54-.41-.81-.14-1.22,5.57-1.36,5.7-4.2,2.17-3.25,2.31a22.1,22.1,0,0,0,5.15,0,14.39,14.39,0,0,0,2-2.85v2.3h.27s.27-2.44.95-3.12-.55-3-.55-3,.28-1.49.14-1.49S233.42,986.62,233.42,986.62Z" transform="translate(67.01 -593.76)"/><polygon class="cls-6" points="308.84 389.81 308.44 391.84 311.29 391.84 311.42 389.81 308.84 389.81"/><path class="cls-2" d="M238.58,970.34s1.35,4.07,1.62,4.48,1.23,8,1.23,8-1,1.49.27,1.63.68-.27,1.49,0a1.52,1.52,0,0,0,1.36-.14s.4-.81.13-1.08.27-7.33.27-7.33l-.81-2.44-.68-7.73s.81-2,.41-2.58-1.77.41-1.77.41Z" transform="translate(67.01 -593.76)"/><path class="cls-2" d="M236.81,959.76a31.64,31.64,0,0,1-.67,4.61c-.28.27-3.26,7.87-3.26,7.87s-.81,1-.54,4.48.95,7,.95,7-.55,2,.4,2,1.36-.55,1.77-.14.68,0,.81-.27a7,7,0,0,0,.68-1.49c0-.27.54-7.19.54-7.19s4.48-9.91,4.89-10.45,2.71-3.52,2.57-5.56Z" transform="translate(67.01 -593.76)"/><circle class="cls-6" cx="307.22" cy="344.84" r="2.85"/><path class="cls-6" d="M239.66,941a28.9,28.9,0,0,1,1.22,3.12c.14.68,2.72-1.36,2.72-1.36s-1.36-2.3-.95-3.39Z" transform="translate(67.01 -593.76)"/><path class="cls-3" d="M244,942.4s-2-1.49-3.52,1.63-1.9,3-1.9,3-1.77.54-1.22,4.34-1.77,8.82-.82,9.09,9.77,1.76,9.77.68-.81-5.29-.14-7.87S245.22,941.72,244,942.4Z" transform="translate(67.01 -593.76)"/><path class="cls-3" d="M242,943.08s-1.63,2.44-1.49,4.34.13,3.12.13,3.12-2.71,13-2.17,13,2.17.68,2.31.27,3.52-8.68,3.52-8.68.82-8.28-.13-10.17S242,943.08,242,943.08Z" transform="translate(67.01 -593.76)"/><path class="cls-6" d="M238.71,963.15s-1.35,4.61.55,4.75.81-4.48.81-4.48Z" transform="translate(67.01 -593.76)"/><path d="M242.32,984.55s-.47-.36-.71-.12-1.07,4.87-1.19,5-3.68,1.9-2.85,2a20,20,0,0,0,4.52,0,12.76,12.76,0,0,0,1.78-2.5v2h.23s.24-2.14.84-2.73-.48-2.62-.48-2.62.24-1.3.12-1.3S242.32,984.55,242.32,984.55Z" transform="translate(67.01 -593.76)"/><path class="cls-2" d="M238.8,936.73a.81.81,0,0,1,.34-.24.77.77,0,0,1,.37,0A3.86,3.86,0,0,1,241.6,938a1.14,1.14,0,0,0,.42.45l.34.13c.32.21.13.7-.05,1a5.19,5.19,0,0,0-.63,2.81.8.8,0,0,0,.15.47.79.79,0,0,0,.56.23,13.2,13.2,0,0,0,2,.1,2.34,2.34,0,0,0,1.79-.59,1.88,1.88,0,0,0,.08-2c-.29-.64-.77-1.17-1.11-1.78a10.38,10.38,0,0,1-.76-2,8.16,8.16,0,0,0-1.12-2.5A3.34,3.34,0,0,0,241,933a5,5,0,0,0-3.36,1.37c-1.11.84-2.3,1.87-2.39,3.26-.07,1.13.61,2.15,1,3.22a11.41,11.41,0,0,1,.08,5.17c1-.6,2.14-1.43,2.08-2.6a5.67,5.67,0,0,0-1-2.12C236.35,939.33,237.51,938.05,238.8,936.73Z" transform="translate(67.01 -593.76)"/><path class="cls-3" d="M278.86,950.6a9.86,9.86,0,0,0,1.29-5c0-4.47-2.77-8.09-6.19-8.09s-6.18,3.62-6.18,8.09a9.76,9.76,0,0,0,1.29,5,10.12,10.12,0,0,0,0,9.89,10.12,10.12,0,0,0,0,9.89,10.12,10.12,0,0,0,0,9.89,9.79,9.79,0,0,0-1.29,5c0,4.47,2.77,8.09,6.18,8.09s6.19-3.62,6.19-8.09a9.89,9.89,0,0,0-1.29-5,10.12,10.12,0,0,0,0-9.89,10.12,10.12,0,0,0,0-9.89A10.12,10.12,0,0,0,278.86,950.6Z" transform="translate(67.01 -593.76)"/><ellipse class="cls-3" cx="340.97" cy="342" rx="6.18" ry="8.09"/><ellipse class="cls-3" cx="340.97" cy="332.11" rx="6.18" ry="8.09"/><path class="cls-1" d="M297.11,858.17a29.25,29.25,0,0,0,2.3-3.39l-16.24-2.66,17.56.13a29.64,29.64,0,0,0,.57-23.47L277.73,841l21.74-16A29.62,29.62,0,1,0,248.2,854.7a30.19,30.19,0,0,0,2.35,3.47,30.49,30.49,0,0,0-3.37,5.4l21.08,11L245.78,867a29.64,29.64,0,0,0,4.77,27.81,29.62,29.62,0,1,0,46.56,0,29.62,29.62,0,0,0,0-36.62Z" transform="translate(67.01 -593.76)"/><path class="cls-1" d="M244.22,876.48a29.48,29.48,0,0,0,6.33,18.31,29.62,29.62,0,1,0,46.56,0C301.08,889.75,244.22,873.16,244.22,876.48Z" transform="translate(67.01 -593.76)"/><path class="cls-7" d="M297.11,858.17a29.25,29.25,0,0,0,2.3-3.39l-16.24-2.66,17.56.13a29.64,29.64,0,0,0,.57-23.47L277.73,841l21.74-16A29.62,29.62,0,1,0,248.2,854.7a30.19,30.19,0,0,0,2.35,3.47,30.49,30.49,0,0,0-3.37,5.4l21.08,11L245.78,867a29.64,29.64,0,0,0,4.77,27.81,29.62,29.62,0,1,0,46.56,0,29.62,29.62,0,0,0,0-36.62Z" transform="translate(67.01 -593.76)"/><path class="cls-4" d="M244.22,876.48a29.48,29.48,0,0,0,6.33,18.31,29.62,29.62,0,1,0,46.56,0C301.08,889.75,244.22,873.16,244.22,876.48Z" transform="translate(67.01 -593.76)"/><path class="cls-3" d="M-32.37,950.6a9.76,9.76,0,0,0,1.29-5c0-4.47-2.76-8.09-6.18-8.09s-6.18,3.62-6.18,8.09a9.76,9.76,0,0,0,1.29,5,10.12,10.12,0,0,0,0,9.89,10.12,10.12,0,0,0,0,9.89,10.12,10.12,0,0,0,0,9.89,9.79,9.79,0,0,0-1.29,5c0,4.47,2.77,8.09,6.18,8.09s6.18-3.62,6.18-8.09a9.79,9.79,0,0,0-1.29-5,10.12,10.12,0,0,0,0-9.89,10.12,10.12,0,0,0,0-9.89A10.12,10.12,0,0,0-32.37,950.6Z" transform="translate(67.01 -593.76)"/><ellipse class="cls-3" cx="29.75" cy="342" rx="6.18" ry="8.09"/><ellipse class="cls-3" cx="29.75" cy="332.11" rx="6.18" ry="8.09"/><path class="cls-1" d="M-14.11,858.17a29.25,29.25,0,0,0,2.3-3.39l-16.25-2.66,17.57.13a29.69,29.69,0,0,0,.57-23.47L-33.49,841l21.73-16a29.61,29.61,0,0,0-40.46-10.8A29.61,29.61,0,0,0-63,854.7a30.19,30.19,0,0,0,2.35,3.47,30,30,0,0,0-3.38,5.4l21.09,11L-65.44,867a29.64,29.64,0,0,0,4.77,27.81,29.62,29.62,0,0,0,5,41.59,29.62,29.62,0,0,0,41.59-5,29.62,29.62,0,0,0,0-36.62,29.62,29.62,0,0,0,0-36.62Z" transform="translate(67.01 -593.76)"/><path class="cls-1" d="M-67,876.48a29.49,29.49,0,0,0,6.34,18.31,29.62,29.62,0,0,0,5,41.59,29.62,29.62,0,0,0,41.59-5,29.62,29.62,0,0,0,0-36.62C-10.15,889.75-67,873.16-67,876.48Z" transform="translate(67.01 -593.76)"/><path class="cls-7" d="M-14.11,858.17a29.25,29.25,0,0,0,2.3-3.39l-16.25-2.66,17.57.13a29.69,29.69,0,0,0,.57-23.47L-33.49,841l21.73-16a29.61,29.61,0,0,0-40.46-10.8A29.61,29.61,0,0,0-63,854.7a30.19,30.19,0,0,0,2.35,3.47,30,30,0,0,0-3.38,5.4l21.09,11L-65.44,867a29.64,29.64,0,0,0,4.77,27.81,29.62,29.62,0,0,0,5,41.59,29.62,29.62,0,0,0,41.59-5,29.62,29.62,0,0,0,0-36.62,29.62,29.62,0,0,0,0-36.62Z" transform="translate(67.01 -593.76)"/><path class="cls-4" d="M-67,876.48a29.49,29.49,0,0,0,6.34,18.31,29.62,29.62,0,0,0,5,41.59,29.62,29.62,0,0,0,41.59-5,29.62,29.62,0,0,0,0-36.62C-10.15,889.75-67,873.16-67,876.48Z" transform="translate(67.01 -593.76)"/><polygon class="cls-7" points="213.42 262.79 198.73 277.48 191.77 270.52 189.06 273.23 198.72 282.9 216.13 265.5 213.42 262.79"/><polygon class="cls-7" points="260.2 229.27 245.5 243.97 238.54 237.01 235.83 239.72 245.5 249.38 262.91 231.98 260.2 229.27"/><circle class="cls-8" cx="1712.02" cy="148.89" r="34.41"/><rect x="1462.96" y="172.6" width="282.37" height="221.58"/><rect class="cls-4" x="1462.96" y="172.6" width="282.37" height="221.58"/><rect class="cls-9" x="1404.15" y="203" width="399.54" height="192.5"/><rect x="1487.41" y="149.7" width="233.47" height="260.78"/><rect x="1420.45" y="228.99" width="49.34" height="31.72"/><rect x="1420.45" y="282.73" width="49.34" height="31.72"/><rect x="1420.45" y="336.47" width="49.34" height="31.72"/><rect class="cls-9" x="1517.36" y="175.25" width="49.34" height="31.72"/><rect class="cls-9" x="1517.36" y="228.99" width="49.34" height="31.72"/><rect class="cls-9" x="1517.36" y="282.73" width="49.34" height="31.72"/><rect class="cls-9" x="1641.59" y="175.25" width="49.34" height="31.72"/><rect class="cls-9" x="1641.59" y="228.99" width="49.34" height="31.72"/><rect class="cls-9" x="1641.59" y="282.73" width="49.34" height="31.72"/><rect x="1734.53" y="221.36" width="49.34" height="31.72"/><rect x="1734.53" y="275.1" width="49.34" height="31.72"/><rect x="1734.53" y="328.85" width="49.34" height="31.72"/><rect class="cls-9" x="1582.56" y="325.9" width="43.17" height="84.58"/><rect class="cls-4" x="1517.36" y="175.25" width="49.34" height="9.69"/><rect class="cls-4" x="1641.59" y="175.25" width="49.34" height="9.69"/><rect class="cls-4" x="1641.59" y="228.99" width="49.34" height="9.69"/><rect class="cls-4" x="1641.59" y="282.73" width="49.34" height="9.69"/><rect class="cls-4" x="1517.36" y="228.99" width="49.34" height="9.69"/><rect class="cls-4" x="1517.36" y="282.73" width="49.34" height="9.69"/><rect class="cls-4" x="1420.45" y="228.99" width="49.34" height="7.49"/><rect class="cls-4" x="1420.45" y="282.73" width="49.34" height="7.49"/><rect class="cls-4" x="1420.45" y="336.47" width="49.34" height="7.49"/><rect class="cls-4" x="1734.53" y="221.36" width="49.34" height="7.49"/><rect class="cls-4" x="1734.53" y="275.1" width="49.34" height="7.49"/><rect class="cls-4" x="1734.53" y="328.85" width="49.34" height="7.49"/><path class="cls-3" d="M279,1005.24l-1-.24a238.35,238.35,0,0,1,82.34-132.32C462.28,790.2,611.84,806,694.33,908a237.55,237.55,0,0,1,46.83,96.34l-1,.24C715.49,896.46,620.7,820.92,509.62,820.92,400,820.92,303,898.44,279,1005.24Z" transform="translate(67.01 -593.76)"/><circle class="cls-10" cx="495.6" cy="77.89" r="29.05"/><path class="cls-3" d="M303.43,998.64a10.77,10.77,0,0,0,4,5.42,9.26,9.26,0,0,0-3.28-12.13A10.83,10.83,0,0,0,303.43,998.64Z" transform="translate(67.01 -593.76)"/><path d="M304.76,997.92a10.74,10.74,0,0,1,2.79,6.14,9.28,9.28,0,0,1-9-8.77A10.78,10.78,0,0,1,304.76,997.92Z" transform="translate(67.01 -593.76)"/><path class="cls-3" d="M372.43,998.64a10.71,10.71,0,0,0,4,5.42,9.29,9.29,0,0,0-3.28-12.13A10.75,10.75,0,0,0,372.43,998.64Z" transform="translate(67.01 -593.76)"/><path d="M373.76,997.92a10.81,10.81,0,0,1,2.79,6.14,9.26,9.26,0,0,1-9-8.77A10.8,10.8,0,0,1,373.76,997.92Z" transform="translate(67.01 -593.76)"/><polygon class="cls-3" points="453.12 138.1 442.19 129.36 503.37 74.75 658.48 74.75 658.48 122.81 557.99 190.54 453.12 138.1"/><polygon class="cls-11" points="686.77 105.38 686.77 75.84 666.17 75.84 666.17 83.07 658.48 74.75 608.24 129.36 588.57 142.47 558.09 365.22 604.06 411.2 710.92 411.2 710.92 131.55 686.77 105.38"/><rect class="cls-1" x="442.2" y="129.36" width="166.04" height="281.83"/><rect class="cls-11" x="506.65" y="342.38" width="30.59" height="68.82"/><polygon class="cls-3" points="473.87 362.04 473.87 351.12 460.77 351.12 460.77 362.04 472.78 362.04 473.87 362.04"/><polygon class="cls-3" points="472.78 370.78 460.77 370.78 460.77 381.7 473.87 381.7 473.87 370.78 472.78 370.78"/><rect class="cls-3" x="482.61" y="351.12" width="13.11" height="10.92"/><rect class="cls-3" x="482.61" y="370.78" width="13.11" height="10.92"/><polygon class="cls-3" points="563.45 362.04 563.45 351.12 550.34 351.12 550.34 362.04 562.36 362.04 563.45 362.04"/><polygon class="cls-3" points="562.36 370.78 550.34 370.78 550.34 381.7 563.45 381.7 563.45 370.78 562.36 370.78"/><rect class="cls-3" x="572.19" y="351.12" width="13.11" height="10.92"/><rect class="cls-3" x="572.19" y="370.78" width="13.11" height="10.92"/><polygon class="cls-3" points="655.21 143.56 655.21 132.64 642.1 132.64 642.1 143.56 654.12 143.56 655.21 143.56"/><polygon class="cls-3" points="654.12 152.31 642.1 152.31 642.1 163.23 655.21 163.23 655.21 152.31 654.12 152.31"/><rect class="cls-3" x="663.95" y="132.64" width="13.11" height="10.92"/><rect class="cls-3" x="663.95" y="152.3" width="13.11" height="10.92"/><polygon class="cls-3" points="655.21 204.74 655.21 193.81 642.1 193.81 642.1 204.74 654.12 204.74 655.21 204.74"/><polygon class="cls-3" points="654.12 213.48 642.1 213.48 642.1 224.4 655.21 224.4 655.21 213.48 654.12 213.48"/><rect class="cls-3" x="663.95" y="193.81" width="13.11" height="10.92"/><rect class="cls-3" x="663.95" y="213.48" width="13.11" height="10.92"/><polygon class="cls-3" points="655.21 265.91 655.21 254.99 642.1 254.99 642.1 265.91 654.12 265.91 655.21 265.91"/><polygon class="cls-3" points="654.12 274.65 642.1 274.65 642.1 285.57 655.21 285.57 655.21 274.65 654.12 274.65"/><rect class="cls-3" x="663.95" y="254.99" width="13.11" height="10.92"/><rect class="cls-3" x="663.95" y="274.65" width="13.11" height="10.92"/><polygon class="cls-3" points="655.21 327.08 655.21 316.16 642.1 316.16 642.1 327.08 654.12 327.08 655.21 327.08"/><polygon class="cls-3" points="654.12 335.82 642.1 335.82 642.1 346.75 655.21 346.75 655.21 335.82 654.12 335.82"/><rect class="cls-3" x="663.95" y="316.16" width="13.11" height="10.92"/><rect class="cls-3" x="663.95" y="335.82" width="13.11" height="10.92"/><rect class="cls-3" x="460.77" y="143.57" width="126.71" height="26.22"/><rect class="cls-3" x="460.77" y="196" width="126.71" height="26.22"/><rect class="cls-3" x="460.77" y="248.43" width="126.71" height="26.22"/><rect class="cls-3" x="460.77" y="300.87" width="126.71" height="26.22"/><rect class="cls-3" x="272.5" y="410.1" width="608.12" height="1.07"/><rect class="cls-3" x="374.33" y="286.59" width="3.14" height="124.11"/><path d="M339.46,896.17c.2,43.4-30.33,78.72-30.33,78.72s-30.86-35-31.06-78.44,30.33-78.72,30.33-78.72S339.26,852.77,339.46,896.17Z" transform="translate(67.01 -593.76)"/><path class="cls-4" d="M339.46,896.17c.2,43.4-30.33,78.72-30.33,78.72s-30.86-35-31.06-78.44,30.33-78.72,30.33-78.72S339.26,852.77,339.46,896.17Z" transform="translate(67.01 -593.76)"/><rect class="cls-3" x="333.49" y="286.59" width="3.14" height="124.11"/><path d="M298.62,896.17c.2,43.4-30.34,78.72-30.34,78.72s-30.86-35-31.06-78.44,30.34-78.72,30.34-78.72S298.42,852.77,298.62,896.17Z" transform="translate(67.01 -593.76)"/><path class="cls-1" d="M711.21,723c-24.75.11-44.89.48-44.89.48s23.94-31.72,44.8-20S756,723,756,723,736,722.83,711.21,723Z" transform="translate(67.01 -593.76)"/><path class="cls-1" d="M298.84,783.92c-24.75.11-44.89.48-44.89.48s23.94-31.72,44.8-20S343.58,784,343.58,784,323.6,783.81,298.84,783.92Z" transform="translate(67.01 -593.76)"/><path class="cls-1" d="M388.7,656.63c-24.75.11-44.9.48-44.9.48s23.95-31.72,44.81-20,44.82,19.55,44.82,19.55S413.45,656.51,388.7,656.63Z" transform="translate(67.01 -593.76)"/><rect class="cls-3" x="826.08" y="286.59" width="3.14" height="124.11"/><path d="M791.21,896.17c.2,43.4-30.33,78.72-30.33,78.72s-30.86-35-31.06-78.44,30.33-78.72,30.33-78.72S791,852.77,791.21,896.17Z" transform="translate(67.01 -593.76)"/><polygon class="cls-3" points="713.57 333.67 745.28 333.67 745.28 326.01 762.77 326.01 762.77 333.67 795.58 333.67 795.58 367.56 762.77 367.56 762.77 410.21 745.28 410.21 745.28 367.56 713.57 367.56 697.16 348.98 713.57 333.67"/><polygon class="cls-12" points="1773.88 197.76 1773.88 140.35 1801.4 140.35 1801.4 171.32 1773.88 197.76"/><polygon points="1777.61 197.76 1777.61 146.41 1798.13 146.41 1798.13 173.47 1777.61 197.76"/><circle class="cls-13" cx="1751.49" cy="83.91" r="25.65"/><circle class="cls-14" cx="1751.49" cy="83.91" r="20.52"/><g id="f741385e-e577-4271-b030-1aa9bd75830a"><path class="cls-15" d="M1887.26,822.4c0,17.32,13.72,31.35,30.65,31.35h.1c0,.68-.1,1.38-.1,2.08,0,16.17,12.82,29.28,28.63,29.28a28.12,28.12,0,0,0,18.52-7,37.55,37.55,0,0,0,21.82,7c21.17,0,38.32-17.54,38.32-39.18,0-1.2-.06-2.37-.16-3.54a33.49,33.49,0,0,0,5.91.54c18.86,0,34.15-15.64,34.15-34.93a35,35,0,0,0-20.64-32.09,26.74,26.74,0,0,0,.14-2.84c0-15.53-12.33-28.13-27.52-28.13-.7,0-1.4.06-2.1.11a35.36,35.36,0,0,0,2.1-12.09c0-19.36-15.33-35-34.26-35a34.09,34.09,0,0,0-29.33,16.92,22.93,22.93,0,0,0-45,6.59,23.74,23.74,0,0,0,3.8,12.94,41.12,41.12,0,0,0-4.49,3.41,40.19,40.19,0,0,0-3.8,56.72A31.41,31.41,0,0,0,1887.26,822.4Z" transform="translate(67.01 -593.76)"/></g><path id="aa86aca2-1def-4b5e-bdbf-3429bf39090e" class="cls-16" d="M1892.7,820.52c0,16.25,12.88,29.43,28.77,29.43h.1c0,.65-.1,1.29-.1,1.95,0,15.18,12,27.48,26.88,27.48a26.34,26.34,0,0,0,17.39-6.53,35.21,35.21,0,0,0,20.48,6.53c19.86,0,36-16.47,36-36.78,0-1.12-.06-2.22-.15-3.31a32.27,32.27,0,0,0,5.55.5c17.7,0,32.05-14.68,32.05-32.78a32.8,32.8,0,0,0-19.38-30.12c.08-.88.13-1.77.13-2.67,0-14.6-11.55-26.41-25.82-26.41-.66,0-1.32.05-2,.11a33.61,33.61,0,0,0,2-11.36c0-18.16-14.4-32.89-32.16-32.89a32,32,0,0,0-27.52,15.89,21.52,21.52,0,0,0-42.29,6.19,22.35,22.35,0,0,0,3.57,12.12,38.67,38.67,0,0,0-4.22,3.2,37.73,37.73,0,0,0-3.57,53.24A29.5,29.5,0,0,0,1892.7,820.52Z" transform="translate(67.01 -593.76)"/><rect class="cls-17" x="2032.13" y="158.57" width="8.35" height="207.81"/><rect class="cls-18" x="2033.9" y="161.49" width="4.2" height="204.89"/><rect class="cls-18" x="1950.59" y="773.06" width="4.2" height="50.75" transform="translate(44.46 945.58) rotate(-42.8)"/><rect class="cls-18" x="1965.55" y="833.7" width="44.54" height="4.2" transform="translate(-39.35 756.23) rotate(-36.6)"/><g id="b1e29bf6-85c6-472a-ba69-b630e8d8f49d"><path class="cls-19" d="M1971.18,841c0,14.48-12.15,26.23-27.14,26.23H1944c0,.58.09,1.15.09,1.74,0,13.52-11.36,24.49-25.35,24.49a25.74,25.74,0,0,1-16.41-5.84,34.62,34.62,0,0,1-19.3,5.84c-18.74,0-33.94-14.68-33.94-32.79,0-1,.06-2,.15-3a31.68,31.68,0,0,1-5.23.47c-16.72,0-30.25-13.08-30.25-29.22A29.22,29.22,0,0,1,1832,802.07c-.08-.78-.12-1.58-.13-2.37,0-13,10.91-23.53,24.36-23.53.63,0,1.25,0,1.86.09a28.44,28.44,0,0,1-1.86-10.12c0-16.19,13.56-29.31,30.32-29.31a30.52,30.52,0,0,1,26,14.16,20.27,20.27,0,0,1,19.54-14.16c11.24,0,20.36,8.8,20.36,19.67a19.15,19.15,0,0,1-3.35,10.81,32.9,32.9,0,0,1,16.14,28.13,32.42,32.42,0,0,1-8.79,22.16A26.17,26.17,0,0,1,1971.18,841Z" transform="translate(67.01 -593.76)"/></g><path id="da8ae254-7852-462b-b033-1b79dc847a6a" class="cls-20" d="M1967.78,839.85c0,13.86-11.63,25.1-26,25.1h-.09c0,.56.09,1.11.09,1.67,0,13-10.86,23.44-24.26,23.44a24.57,24.57,0,0,1-15.7-5.6,33.1,33.1,0,0,1-18.5,5.6c-17.93,0-32.48-14-32.48-31.38,0-1,.05-1.9.14-2.83a30,30,0,0,1-5,.45c-16,0-28.94-12.54-28.94-28a28,28,0,0,1,17.5-25.69,21.43,21.43,0,0,1-.11-2.27c0-12.44,10.44-22.52,23.32-22.52.6,0,1.19,0,1.77.09a27.21,27.21,0,0,1-1.77-9.69c0-15.5,13-28.06,29-28.06a29.27,29.27,0,0,1,24.84,13.54,19.4,19.4,0,0,1,18.7-13.55c10.76,0,19.49,8.43,19.49,18.83a18.34,18.34,0,0,1-3.23,10.36,31.5,31.5,0,0,1,15.46,26.93,31.09,31.09,0,0,1-8.4,21.22A24.93,24.93,0,0,1,1967.78,839.85Z" transform="translate(67.01 -593.76)"/><line id="d827a518-3361-4086-b50f-c6b47e6818cd" class="cls-21" x1="1965.61" y1="365.33" x2="1965.61" y2="190.91"/><rect class="cls-22" x="1961.02" y="190.91" width="9.5" height="174.41"/><rect class="cls-18" x="1962.98" y="190.91" width="5.25" height="174.41"/><line id="_4a2b3956-f53f-4918-93e5-f7b78a79ae92" data-name="4a2b3956-f53f-4918-93e5-f7b78a79ae92" class="cls-21" x1="1996.22" y1="211.38" x2="1965.08" y2="243.15"/><rect class="cls-18" x="1891.4" y="818.4" width="44.49" height="5.25" transform="translate(54.73 1019.06) rotate(-45.57)"/><line id="_100a92bc-a3f1-4f9a-a93f-0d91ae55d71b" data-name="100a92bc-a3f1-4f9a-a93f-0d91ae55d71b" class="cls-21" x1="1932.79" y1="247.8" x2="1965.08" y2="270.46"/><rect class="cls-18" x="1879.3" y="833.16" width="5.25" height="39.44" transform="translate(169.77 1309.65) rotate(-54.94)"/><path class="cls-23" d="M1676.08,820.65v172h253.64v-172c0-3-4.34-5.38-9.69-5.38H1685.78C1680.43,815.27,1676.08,817.68,1676.08,820.65Z" transform="translate(67.01 -593.76)"/><polygon class="cls-24" points="1747.72 220.36 1747.72 392.31 1992.86 392.31 1992.86 213.88 1870.66 123.11 1747.72 220.36"/><circle class="cls-25" cx="1870.41" cy="204.99" r="27.21"/><rect class="cls-26" x="1921.43" y="257.47" width="48.1" height="48.1"/><rect class="cls-27" x="1772.26" y="257.47" width="48.1" height="48.1"/><polygon class="cls-28" points="1870.14 146.75 1723.04 257.75 1718.84 225.05 1870.12 105.25 2022.95 222.71 2016.43 259.15 1870.14 146.75"/><polygon points="1870.18 137.94 1725.68 251.82 1721.17 226.66 1870.16 109.25 2020.61 226.65 2016.13 251.84 1870.18 137.94"/><rect class="cls-29" x="1841.26" y="311.89" width="58.8" height="80.42"/><rect x="1842.96" y="313.59" width="55.4" height="78.72"/><rect x="1922.65" y="259.16" width="44.7" height="15.79"/><rect class="cls-30" x="1922.65" y="274.96" width="44.7" height="28.91"/><rect x="1773.96" y="259.16" width="44.7" height="15.79"/><rect class="cls-30" x="1773.96" y="274.96" width="44.7" height="28.91"/><path d="M1803.67,823.28a24.77,24.77,0,0,0,24.76-24.8h-49.57v0a24.78,24.78,0,0,0,24.79,24.78Z" transform="translate(67.01 -593.76)"/><path class="cls-30" d="M1803.65,823a24.78,24.78,0,0,0,24.78-24.78h-49.57A24.78,24.78,0,0,0,1803.65,823Z" transform="translate(67.01 -593.76)"/><path class="cls-30" d="M1778.86,798.48h49.57a24.79,24.79,0,0,0-49.57,0Z" transform="translate(67.01 -593.76)"/><path class="cls-30" d="M1778.86,798.48h49.57a24.79,24.79,0,0,0-49.57,0Z" transform="translate(67.01 -593.76)"/><circle class="cls-31" cx="1855.84" cy="352.71" r="5.83"/><circle class="cls-32" cx="1855.84" cy="352.71" r="4.38"/><rect class="cls-33" x="1835.92" y="380.89" width="71.43" height="23.32"/><rect class="cls-24" x="1837.38" y="382.83" width="68.51" height="19.92"/><g id="_06ed4a51-c0d7-4f18-ace3-f8895d5abf4f" data-name="06ed4a51-c0d7-4f18-ace3-f8895d5abf4f"><path class="cls-34" d="M1899.5,933.74a14.3,14.3,0,0,0,14.13,14.46h0c0,.32,0,.63,0,.95a13.36,13.36,0,0,0,13.2,13.5,13,13,0,0,0,8.54-3.22,17.36,17.36,0,0,0,10.06,3.22,17.88,17.88,0,0,0,17.66-18.07c0-.55,0-1.09-.07-1.62a15.54,15.54,0,0,0,2.72.24,15.92,15.92,0,0,0,15.74-16.09,16.13,16.13,0,0,0-9.52-14.8A8.1,8.1,0,0,0,1972,911a12.82,12.82,0,0,0-12.68-13c-.33,0-.64,0-1,.05a16.16,16.16,0,0,0,1-5.59,16,16,0,0,0-15.79-16.16,15.71,15.71,0,0,0-13.53,7.81,10.57,10.57,0,0,0-20.77,3,11,11,0,0,0,1.76,6,17.52,17.52,0,0,0-2.07,1.56,18.54,18.54,0,0,0-1.76,26.15A14.49,14.49,0,0,0,1899.5,933.74Z" transform="translate(67.01 -593.76)"/></g><path id="_78683fa5-7813-42ce-9e3f-16828d09ffb2" data-name="78683fa5-7813-42ce-9e3f-16828d09ffb2" class="cls-16" d="M1902,932.85a13.42,13.42,0,0,0,13.27,13.56h0c0,.3,0,.6,0,.9A12.52,12.52,0,0,0,1927.65,960a12.16,12.16,0,0,0,8-3,16.24,16.24,0,0,0,9.44,3,16.77,16.77,0,0,0,16.58-17c0-.52,0-1-.07-1.53a14.68,14.68,0,0,0,2.56.23A14.94,14.94,0,0,0,1979,926.62a15.12,15.12,0,0,0-8.93-13.89,8.24,8.24,0,0,0,.06-1.22,12,12,0,0,0-11.9-12.17c-.31,0-.61,0-.91,0a15.47,15.47,0,0,0,.91-5.23A15,15,0,0,0,1943.36,879a14.75,14.75,0,0,0-12.69,7.33,9.92,9.92,0,0,0-19.49,2.85,10.29,10.29,0,0,0,1.65,5.59,19.9,19.9,0,0,0-1.95,1.47,17.41,17.41,0,0,0-1.65,24.55A13.6,13.6,0,0,0,1902,932.85Z" transform="translate(67.01 -593.76)"/><rect class="cls-35" x="2002.4" y="307.67" width="3.85" height="95.79"/><rect class="cls-18" x="2003.22" y="309.01" width="1.94" height="94.45"/><rect class="cls-18" x="1928.69" y="910.96" width="1.94" height="23.4" transform="translate(-46.07 963.01) rotate(-42.8)"/><rect class="cls-18" x="1935.59" y="938.94" width="20.53" height="1.94" transform="translate(-109.7 751.74) rotate(-36.6)"/><g id="_972b0d41-b6e5-4c12-bd64-332f8d6d9bc4" data-name="972b0d41-b6e5-4c12-bd64-332f8d6d9bc4"><path class="cls-36" d="M1938.17,942.27a12.31,12.31,0,0,1-12.52,12.09h0a5.36,5.36,0,0,1,0,.8,11.5,11.5,0,0,1-11.68,11.3,11.87,11.87,0,0,1-7.57-2.68,15.9,15.9,0,0,1-8.91,2.69,15.37,15.37,0,0,1-15.64-15.11c0-.46,0-.89.06-1.36a15,15,0,0,1-2.41.2,13.71,13.71,0,0,1-13.94-13.47,13.45,13.45,0,0,1,8.43-12.37,10.14,10.14,0,0,1-.06-1.1,11,11,0,0,1,11.23-10.84c.29,0,.57,0,.86,0a13,13,0,0,1-.86-4.66,13.77,13.77,0,0,1,14-13.53,14.08,14.08,0,0,1,12,6.53,9.33,9.33,0,0,1,9-6.53,9.23,9.23,0,0,1,9.39,9.07,8.82,8.82,0,0,1-1.56,5,15.17,15.17,0,0,1,7.47,13,15,15,0,0,1-4.06,10.22A12,12,0,0,1,1938.17,942.27Z" transform="translate(67.01 -593.76)"/></g><path id="b9cc99c1-468f-47c5-9d53-f370b6656f3a" class="cls-20" d="M1936.69,941.74a11.79,11.79,0,0,1-12,11.58h0a3.83,3.83,0,0,1,0,.76,11,11,0,0,1-11.2,10.81,11.32,11.32,0,0,1-7.24-2.58,15.22,15.22,0,0,1-8.52,2.58,14.73,14.73,0,0,1-15-14.46c0-.44,0-.87.07-1.3a14,14,0,0,1-2.33.19,13.13,13.13,0,0,1-13.35-12.89,12.89,12.89,0,0,1,8.07-11.84c0-.35,0-.7-.06-1.05a10.57,10.57,0,0,1,10.73-10.39c.28,0,.55.05.82.05a12.64,12.64,0,0,1-.82-4.47,13.17,13.17,0,0,1,13.39-12.93,13.49,13.49,0,0,1,11.46,6.24,9,9,0,0,1,8.62-6.24,8.83,8.83,0,0,1,9,8.68,8.51,8.51,0,0,1-1.48,4.78,14.51,14.51,0,0,1,7.12,12.41,14.3,14.3,0,0,1-3.88,9.79A11.56,11.56,0,0,1,1936.69,941.74Z" transform="translate(67.01 -593.76)"/><line id="_7a451371-7fbb-4ddd-b5af-3dcf3eef4c8e" data-name="7a451371-7fbb-4ddd-b5af-3dcf3eef4c8e" class="cls-21" x1="1971.74" y1="402.97" x2="1971.74" y2="322.57"/><rect class="cls-37" x="1969.62" y="322.57" width="4.38" height="80.4"/><rect class="cls-18" x="1970.53" y="322.57" width="2.42" height="80.4"/><line id="f8907fab-e671-432b-8785-92f5b3540283" class="cls-21" x1="1985.85" y1="332.01" x2="1971.49" y2="346.66"/><rect class="cls-18" x="1901.41" y="931.88" width="20.51" height="2.42" transform="translate(-25.89 1051.26) rotate(-45.57)"/><line id="_83bfd14d-9fcf-4efd-aa6d-a51063723d88" data-name="83bfd14d-9fcf-4efd-aa6d-a51063723d88" class="cls-21" x1="1956.61" y1="348.8" x2="1971.49" y2="359.24"/><rect class="cls-18" x="1895.83" y="938.68" width="2.42" height="18.18" transform="translate(98.53 1362.4) rotate(-54.94)"/><polyline class="cls-38" points="2023.32 293.23 2058.98 325.99 2090.49 293.23"/><rect class="cls-39" x="2100.44" y="276.65" width="21.14" height="130.61"/><rect class="cls-40" x="2102.1" y="279.13" width="17.83" height="123.56"/><rect class="cls-41" x="2000.1" y="282.04" width="126.87" height="22.8"/><rect class="cls-40" x="2001.76" y="284.52" width="123.56" height="17.83"/><circle class="cls-42" cx="2110.81" cy="293.23" r="3.73"/><circle class="cls-43" cx="2010.88" cy="293.23" r="3.73"/><circle class="cls-44" cx="2110.81" cy="293.23" r="2.9"/><circle class="cls-44" cx="2010.88" cy="293.23" r="2.9"/><rect class="cls-45" x="2016.69" y="323.91" width="80.02" height="54.31"/><rect x="2017.31" y="324.54" width="78.78" height="52.24"/><rect class="cls-24" x="2031.41" y="332.83" width="55.56" height="4.98"/><rect class="cls-24" x="2037.42" y="342.57" width="39.39" height="4.98"/><rect class="cls-24" x="2034.1" y="352.31" width="47.68" height="4.98"/><rect class="cls-24" x="2030.79" y="362.06" width="55.56" height="4.98"/><g id="_63650477-b8a1-43d8-a2c1-7cd9fae56092" data-name="63650477-b8a1-43d8-a2c1-7cd9fae56092"><path class="cls-46" d="M1728.91,947.53a13,13,0,0,1-12.84,13.14h0a5.08,5.08,0,0,1,0,.87,12.14,12.14,0,0,1-12,12.27,11.81,11.81,0,0,1-7.77-2.92,15.78,15.78,0,0,1-9.15,2.92,16.24,16.24,0,0,1-16.06-16.42c0-.5,0-1,.07-1.48a13.78,13.78,0,0,1-2.48.22,14.47,14.47,0,0,1-14.31-14.63,14.65,14.65,0,0,1,8.66-13.45,7.84,7.84,0,0,1-.06-1.19,11.66,11.66,0,0,1,11.53-11.79c.29,0,.58,0,.87,0a14.85,14.85,0,0,1-.87-5.07,14.52,14.52,0,0,1,14.35-14.69,14.3,14.3,0,0,1,12.3,7.1,9.61,9.61,0,0,1,18.88,2.76,10,10,0,0,1-1.6,5.43,16.06,16.06,0,0,1,1.87,1.41,16.84,16.84,0,0,1,1.61,23.77A13.18,13.18,0,0,1,1728.91,947.53Z" transform="translate(67.01 -593.76)"/></g><path id="d9fb3d72-af8e-4f1d-b977-47710d21b422" class="cls-16" d="M1726.63,946.74a12.21,12.21,0,0,1-12.06,12.34h0a5.49,5.49,0,0,1,0,.81,11.39,11.39,0,0,1-11.26,11.52,11.07,11.07,0,0,1-7.29-2.75,14.73,14.73,0,0,1-8.58,2.75A15.25,15.25,0,0,1,1672.36,956c0-.46,0-.93.07-1.4a13,13,0,0,1-2.33.21,13.58,13.58,0,0,1-13.44-13.73,13.76,13.76,0,0,1,8.13-12.63,6.76,6.76,0,0,1-.06-1.11,10.94,10.94,0,0,1,10.82-11.06c.28,0,.55,0,.83,0a14.07,14.07,0,0,1-.83-4.76A13.62,13.62,0,0,1,1689,897.77a13.41,13.41,0,0,1,11.54,6.66,9,9,0,0,1,17.72,2.59,9.38,9.38,0,0,1-1.5,5.09,15.24,15.24,0,0,1,1.77,1.34,15.81,15.81,0,0,1,1.5,22.31A12.37,12.37,0,0,1,1726.63,946.74Z" transform="translate(67.01 -593.76)"/><rect class="cls-47" x="1759.79" y="324.41" width="3.5" height="87.09"/><rect class="cls-18" x="1760.78" y="325.63" width="1.76" height="85.87"/><rect class="cls-18" x="1690.85" y="936.64" width="21.27" height="1.76" transform="translate(-75.45 955.2) rotate(-47.2)"/><rect class="cls-18" x="1685.88" y="943.8" width="1.76" height="18.67" transform="translate(-17.11 1145.26) rotate(-53.4)"/><g id="ea5e6e86-8f22-4c0d-a253-147f504d396e"><path class="cls-48" d="M1693.73,955.31a11.18,11.18,0,0,0,11.37,11h0a4.53,4.53,0,0,0,0,.73,10.45,10.45,0,0,0,10.63,10.26,10.79,10.79,0,0,0,6.9-2.48,14.4,14.4,0,0,0,8.1,2.45A14,14,0,0,0,1745,963.52c0-.41,0-.83-.06-1.23a13.3,13.3,0,0,0,2.19.18,12.46,12.46,0,0,0,12.67-12.24,12.24,12.24,0,0,0-7.66-11.25c0-.33.05-.66.05-1a10,10,0,0,0-10.21-9.86c-.26,0-.52,0-.77,0a11.79,11.79,0,0,0,.77-4.24,12.5,12.5,0,0,0-12.71-12.29,12.84,12.84,0,0,0-10.89,5.94,8.49,8.49,0,0,0-8.18-5.94,8.4,8.4,0,0,0-8.54,8.25,8.08,8.08,0,0,0,1.4,4.54,13.78,13.78,0,0,0-6.76,11.8,13.57,13.57,0,0,0,3.69,9.3A11,11,0,0,0,1693.73,955.31Z" transform="translate(67.01 -593.76)"/></g><path id="_79f8c247-f548-4c1c-8f49-a16aaa215201" data-name="79f8c247-f548-4c1c-8f49-a16aaa215201" class="cls-20" d="M1695.13,954.82A10.71,10.71,0,0,0,1706,965.34h0a4.05,4.05,0,0,0,0,.7,10,10,0,0,0,10.17,9.82,10.35,10.35,0,0,0,6.58-2.33,13.91,13.91,0,0,0,7.75,2.33,13.39,13.39,0,0,0,13.62-13.15,11.56,11.56,0,0,0-.06-1.19,12.32,12.32,0,0,0,2.1.18A11.93,11.93,0,0,0,1758.31,950a11.73,11.73,0,0,0-7.34-10.77c0-.31,0-.62,0-.93a9.61,9.61,0,0,0-9.77-9.44c-.25,0-.5,0-.74,0a11.49,11.49,0,0,0,.74-4.06,12,12,0,0,0-12.17-11.76,12.28,12.28,0,0,0-10.42,5.68,8.2,8.2,0,0,0-16,2.21,7.68,7.68,0,0,0,1.35,4.35,13.17,13.17,0,0,0-6.47,11.28,13,13,0,0,0,3.54,8.89A10.49,10.49,0,0,0,1695.13,954.82Z" transform="translate(67.01 -593.76)"/><line id="_86901f0c-b7b5-4ba8-942f-e54f281a8bcd" data-name="86901f0c-b7b5-4ba8-942f-e54f281a8bcd" class="cls-21" x1="1791.17" y1="411.06" x2="1791.17" y2="337.96"/><rect class="cls-49" x="1789.11" y="337.96" width="3.98" height="73.1"/><rect class="cls-18" x="1790.07" y="337.96" width="2.2" height="73.1"/><line id="_63650f42-d3c3-489e-a647-f3904e46b7bd" data-name="63650f42-d3c3-489e-a647-f3904e46b7bd" class="cls-21" x1="1778.34" y1="346.54" x2="1791.39" y2="359.85"/><rect class="cls-18" x="1716.75" y="937.63" width="2.2" height="18.64" transform="translate(-104.77 879.53) rotate(-44.43)"/><line id="_25077b7e-584e-4c29-8c8c-a60ca5d6c1ae" data-name="25077b7e-584e-4c29-8c8c-a60ca5d6c1ae" class="cls-21" x1="1804.92" y1="361.8" x2="1791.39" y2="371.29"/><rect class="cls-18" x="1722.88" y="959.21" width="16.53" height="2.2" transform="translate(-170.51 574.92) rotate(-35.06)"/><path class="cls-50" d="M782.65,695a2.1,2.1,0,0,1-1.17-2.53,1,1,0,0,0,0-.23h0a1,1,0,0,0-1.88-.7h0a1.13,1.13,0,0,0-.12.21,2.08,2.08,0,0,1-2.52,1.16,1,1,0,0,0-.24,0h0a1,1,0,0,0-.69,1.88h0a.72.72,0,0,0,.21.12,2.08,2.08,0,0,1,1.16,2.52c0,.08,0,.16-.05.23h0a1.05,1.05,0,0,0,1,1.11,1,1,0,0,0,.9-.41h0a1,1,0,0,0,.11-.21,2.1,2.1,0,0,1,2.53-1.16.85.85,0,0,0,.23,0h0a1,1,0,0,0,1.11-1,1,1,0,0,0-.42-.9h0A.78.78,0,0,0,782.65,695Z" transform="translate(67.01 -593.76)"/></g><g id="Layer_2" data-name="Layer 2"><ellipse class="cls-51" cx="833.49" cy="757.03" rx="19.96" ry="2.99" transform="translate(-148.1 573.43) rotate(-63.61)"/><ellipse class="cls-51" cx="1082.88" cy="880.88" rx="19.96" ry="2.03" transform="translate(-120.51 865.64) rotate(-63.61)"/><rect class="cls-52" x="913.86" y="837.46" width="39.92" height="11.98" transform="translate(-244.13 432.72) rotate(-50.45)"/><rect class="cls-53" x="921.08" y="840.48" width="39.92" height="13.47" transform="translate(-32.06 975.61) rotate(-76.77)"/><rect class="cls-52" x="921.81" y="841.4" width="39.92" height="11.98" transform="translate(-31.67 976.45) rotate(-76.77)"/><rect class="cls-54" x="937.24" y="679.69" width="41.91" height="278.42" transform="translate(-134.25 719.51) rotate(-63.61)"/><path class="cls-40" d="M1074,898.65c-4.88-2.34-253-125.52-249.41-123.74,13.77-21,17.74-35.76,17.74-35.76L1091.77,862.9S1083,878.27,1074,898.65Z" transform="translate(67.01 -593.76)"/><rect class="cls-53" x="932.87" y="804.76" width="39.92" height="22.95" transform="translate(-134.84 713.23) rotate(-63.61)"/><rect class="cls-52" x="932.87" y="805.76" width="39.92" height="20.96" transform="translate(-134.84 713.23) rotate(-63.61)"/><rect class="cls-53" x="932.42" y="809.03" width="39.92" height="13.97" transform="translate(-134.89 712.71) rotate(-63.61)"/><rect class="cls-52" x="932.42" y="810.03" width="39.92" height="11.98" transform="translate(-134.89 712.71) rotate(-63.61)"/><circle class="cls-55" cx="1032.18" cy="320.71" r="1.66"/><g class="cls-56"><rect class="cls-57" x="900.3" y="274.12" width="1.71" height="9.67"/><rect class="cls-57" x="896.31" y="278.1" width="9.67" height="1.71"/></g><g class="cls-56"><rect class="cls-57" x="1330.24" y="153.55" width="1.71" height="9.67"/><rect class="cls-57" x="1326.26" y="157.53" width="9.67" height="1.71"/></g><g class="cls-56"><rect class="cls-57" x="910.53" y="33.55" width="1.71" height="9.67"/><rect class="cls-57" x="906.55" y="37.53" width="9.67" height="1.71"/></g><g class="cls-56"><rect class="cls-57" x="1279.05" y="18.77" width="1.71" height="9.67"/><rect class="cls-57" x="1275.07" y="22.75" width="9.67" height="1.71"/></g><path class="cls-50" d="M921.37,625.87a2.1,2.1,0,0,1-1.16-2.53,1.89,1.89,0,0,0,0-.23h0a1.06,1.06,0,0,0-1.89-.7h0a2.12,2.12,0,0,0-.11.21,2.1,2.1,0,0,1-2.53,1.16.85.85,0,0,0-.23,0h0a1,1,0,0,0-.7,1.88h0l.21.12a2.08,2.08,0,0,1,1.16,2.52,2.23,2.23,0,0,0,0,.23h0a1,1,0,0,0,1,1.11,1,1,0,0,0,.9-.41h0a.88.88,0,0,0,.12-.21,2.08,2.08,0,0,1,2.52-1.16,1,1,0,0,0,.24,0h0a1,1,0,0,0,.69-1.88h0A.7.7,0,0,0,921.37,625.87Z" transform="translate(67.01 -593.76)"/><path class="cls-50" d="M1040.8,916.47a2.08,2.08,0,0,1-1.16-2.52.93.93,0,0,0,0-.23h0a1,1,0,0,0-1.88-.7h0a1.43,1.43,0,0,0-.12.21,2.08,2.08,0,0,1-2.52,1.16.93.93,0,0,0-.23,0h0a1,1,0,0,0-.7,1.88h0l.21.12a2.08,2.08,0,0,1,1.16,2.52.93.93,0,0,0,0,.23h0a1,1,0,0,0,1.88.7h0a1.13,1.13,0,0,0,.12-.21,2.08,2.08,0,0,1,2.52-1.16.93.93,0,0,0,.23,0h0a1,1,0,0,0,.7-1.88h0A.88.88,0,0,0,1040.8,916.47Z" transform="translate(67.01 -593.76)"/><circle class="cls-58" cx="1315.45" cy="252.51" r="3.41"/><circle class="cls-50" cx="1240.38" cy="274.12" r="3.41"/><circle class="cls-59" cx="942.38" cy="307.67" r="3.41"/><circle class="cls-58" cx="1117.54" cy="3.41" r="3.41"/><path d="M933.09,797.07l-13.65,20.47S924,838.59,1024.65,838s108.63-20.48,108.63-20.48l-18.77-27.29L1057.07,751Z" transform="translate(67.01 -593.76)"/><path class="cls-60" d="M933.09,797.07l-13.65,20.47S924,838.59,1024.65,838s108.63-20.48,108.63-20.48l-18.77-27.29L1057.07,751Z" transform="translate(67.01 -593.76)"/><polygon points="1290.43 127.39 1111.29 206.44 892.9 127.39 1093.09 36.4 1191.35 81.71 1194.87 83.33 1290.43 127.39"/><polygon class="cls-60" points="1290.43 127.39 1111.29 206.44 892.9 127.39 1093.09 36.4 1191.35 81.71 1194.87 83.33 1290.43 127.39"/><polygon class="cls-40" points="1198.58 146.34 1195.17 146.54 1191.35 81.71 1194.87 83.33 1198.58 146.34"/><path d="M935.37,720.86l-15.93,96.68s114.31-37,213.84,0l-14.79-102.36S984.84,698.68,935.37,720.86Z" transform="translate(67.01 -593.76)"/><ellipse class="cls-40" cx="1198.3" cy="154.69" rx="16.49" ry="11.37"/></g></svg>